<svg id="Layer_1" data-name="Layer 1" xmlns="http://www.w3.org/2000/svg" viewBox="0 0 183.58 244.11"><title>strelka</title><path d="M181.61,5.69c-4,1.6-8.17,3-12.13,4.84a164.33,164.33,0,0,0-42.6,28.52A181.61,181.61,0,0,0,80.5,104.77c-8.5,20.64-13.3,42.09-13.43,64.44,0,6.13.88,12.26,1.45,18.38a13.53,13.53,0,0,0,1,3l.69,0a28.67,28.67,0,0,0,.83-3.25c1.42-9.48,2.57-19,4.24-28.45,5.52-31.13,17.17-59.77,35.64-85.51,16.6-23.15,37.28-42,61.15-57.44,4.24-2.74,8.47-5.48,12.62-8.34.82-.56,2.49-.93,1.65-2.66l-4.74.8" transform="translate(-3 -4.89)" style="fill:#87888a"/><path d="M3,131a46.79,46.79,0,0,0,2.25,5.89c6.52,12,12.89,24.2,19.8,36,8.23,14.06,16.64,28,23.54,42.8a199.73,199.73,0,0,1,11.95,31.75c.13.46.32.9.56,1.56.44-.5.78-.82,1-1.19C76.49,227.55,91,207.38,105.1,187c5-7.17,9.15-14.89,13.59-22.42a42.48,42.48,0,0,0,2.22-5.18l-.58-.5a13.71,13.71,0,0,0-2.4,1.89c-4,5-8.13,9.9-11.86,15.1C92.93,194.2,81.25,213.5,69.46,232.72c-2.4,3.91-4.82,7.82-7.54,12.23a204.16,204.16,0,0,0-21.3-61.58C30.13,163.48,8.37,132.67,3,131" transform="translate(-3 -4.89)" style="fill:#87888a"/></svg>