<svg width="360" height="240" xmlns="http://www.w3.org/2000/svg"><style>.st4{fill:#231f20}</style><path fill="none" id="canvas_background" d="M-1-1h582v402H-1z"/><g id="card"><path d="M340 201H20c-11 0-20-9-20-20V20C0 9 9 0 20 0h320c11 0 20 9 20 20v161c0 11-9 20-20 20z" id="XMLID_1_" fill="#eaa383"/><path d="M340 201H20c-11 0-20-9-20-20V62c0-11 9-20 20-20h320c11 0 20 9 20 20v119c0 11-9 20-20 20z" id="XMLID_2_" fill="#611685"/><path d="M340 195H20c-11 0-20-9-20-20v-71c0-11 9-20 20-20h320c11 0 20 9 20 20v71c0 11-9 20-20 20z" id="XMLID_3_" fill="#267af0"/><path d="M340 240H20c-11 0-20-9-20-20v-74c0-11 9-20 20-20h320c11 0 20 9 20 20v74c0 11-9 20-20 20z" id="XMLID_4_" fill="#fff"/></g><g id="logo"><path d="M64.4 158.8V177c0 3.1-.7 5.7-2.1 7.9-1.5 2.2-3.6 4-6.1 5-2.6 1.1-5.8 1.7-9.4 1.7-2.3 0-4.5-.2-6.7-.8-1.8-.4-3.5-1.1-5-2.1v-7.3c1.2 1 2.6 1.8 4.1 2.3 1.7.6 3.6 1 5.4.9 3.1 0 5.5-.7 7.2-2.2s2.5-3.6 2.5-6.5v-.6c-1 2.1-2.3 3.7-3.9 4.7-1.8 1-3.8 1.6-5.9 1.5-2.1.1-4.2-.5-6.1-1.5-1.7-1-3.1-2.4-4-4.1-1-1.8-1.4-3.9-1.4-6 0-2.2.5-4.4 1.5-6.4.9-1.8 2.4-3.3 4.1-4.3 1.9-1 4-1.5 6.1-1.5 2.3 0 4.3.5 5.8 1.5 1.6 1 2.8 2.5 3.7 4.6v-5.1l10.2.1zm-12.7 15.3c.8-.4 1.5-1 1.9-1.7.5-.8.7-1.6.7-2.5 0-.9-.2-1.8-.7-2.5-.5-.7-1.1-1.3-1.9-1.7-.9-.4-1.9-.6-2.9-.6s-2 .2-2.9.6c-.8.4-1.4 1-1.9 1.7-.5.8-.7 1.7-.7 2.6 0 .9.2 1.7.7 2.4.4.7 1.1 1.3 1.9 1.7.9.4 1.8.6 2.8.6 1.1 0 2.1-.2 3-.6z" class="st4" id="XMLID_65_"/><path d="M71.1 158.4c-.8-.3-1.5-.8-2-1.5-.5-.6-.7-1.4-.7-2.1 0-.8.2-1.5.7-2.1.5-.6 1.2-1.1 2-1.4.9-.4 1.9-.6 2.9-.5 1 0 1.9.2 2.8.5.8.3 1.4.8 1.9 1.4.4.6.7 1.3.7 2.1s-.2 1.5-.7 2.1c-.5.7-1.2 1.2-1.9 1.5-.9.4-1.8.5-2.8.5-1 .1-2-.1-2.9-.5zm-2.3 2.1H79V183H68.8v-22.5z" class="st4" id="XMLID_62_"/><path d="M98.5 160.5h9.1v7h-8.9v15.6H88.5v-15.6h-6.6v-7h6.5v-1.1c0-3.1 1.1-5.4 3.2-7 2.1-1.6 5.2-2.4 9.1-2.4 3 0 5.4.5 7.3 1.5v6.5c-1.4-.8-3-1.1-4.7-1.1-3.2 0-4.8 1.2-4.8 3.6z" class="st4" id="XMLID_61_"/><path d="M111.8 190.4c1.6 1.9 2.3 4.6 2.3 8.2v14.3H104V201c0-1.6-.3-2.9-.9-3.8-.3-.4-.7-.8-1.2-1-.5-.2-1-.3-1.5-.3-.6 0-1.1.1-1.6.3-.5.2-.9.6-1.3 1-.7.9-1 2.1-1 3.7v11.9H86.4v-12.3c0-1.5-.3-2.6-.9-3.5-.3-.4-.7-.7-1.2-1-.5-.2-1-.3-1.5-.3-.6 0-1.1.1-1.7.4-.5.3-.9.7-1.3 1.1-.7 1-1 2.3-1 4.1v11.5h-10v-24.2h10v5.7c.7-2.3 1.8-4 3.2-5.1 1.4-1.1 3.3-1.6 5.6-1.6 2.2 0 4 .6 5.4 1.7 1.4 1.1 2.4 2.8 3 4.9.7-2.2 1.8-3.9 3.3-5 1.5-1.1 3.4-1.6 5.7-1.6 2.9-.1 5.2.9 6.8 2.8z" class="st4" id="XMLID_60_"/><path d="M137.9 189.1c2.1.9 3.8 2.5 4.9 4.4 1.1 2 1.7 4.3 1.7 7.2v12.1h-9.8v-3c-1.8 2.5-4.5 3.8-8.3 3.8-1.6 0-3.3-.3-4.8-1-1.3-.6-2.3-1.6-3.1-2.8-.7-1.2-1.1-2.6-1.1-4 0-1.5.4-2.9 1.1-4.1.8-1.2 1.9-2.2 3.3-2.8 3-1.2 6.4-1.3 9.5-.2 1.3.5 2.4 1.4 3.3 2.4 0-.8-.2-1.7-.6-2.4-.4-.7-1-1.4-1.7-1.9-1.4-1-3.3-1.5-5.6-1.5-3 0-5.8 1-8.1 3v-7.6c3.1-2.1 6.9-3.2 11.4-3.2 3.1.1 5.7.6 7.9 1.6zm-4.5 18.1c.4-.2.7-.5.9-.8.2-.4.3-.8.3-1.2 0-.4-.1-.8-.3-1.1-.2-.3-.5-.6-.8-.8-.9-.5-2-.8-3.1-.7-1 0-1.9.2-2.7.8-.3.2-.6.5-.7.9s-.3.7-.3 1.1c0 .4.1.8.3 1.1.2.3.4.6.7.9.8.5 1.8.8 2.7.7 1.1-.1 2.1-.4 3-.9z" class="st4" id="XMLID_57_"/><path d="M148.7 183h10.1v29.8h-10.1V183z" class="st4" id="XMLID_56_"/><path d="M162.9 183H173v29.8h-10.1V183z" class="st4" id="XMLID_55_"/><path d="M133.1 167.5v-7h-7.3l.1-9.7-10.2 2.5v7.2H109v7h6.7v6.1c0 3.1 1 5.4 2.9 7 1.9 1.6 4.6 2.4 8.1 2.4 2.7 0 4.8-.5 6.5-1.5V175c-1.3.8-2.7 1.1-4.2 1.1-2.9 0-3.2-2.2-3.2-4.6v-4h7.3z" class="st4" id="XMLID_54_"/></g></svg>